<svg aria-hidden="true" style="position: absolute; width: 0; height: 0; overflow: hidden;" version="1.1" xmlns="http://www.w3.org/2000/svg" xmlns:xlink="http://www.w3.org/1999/xlink">
<defs>
<symbol id="icon-menu" viewBox="0 0 32 32">
<path stroke-linejoin="miter" stroke-linecap="butt" stroke-miterlimit="4" stroke-width="1.0667" d="M6.4 9.067h19.2"></path>
<path stroke-linejoin="miter" stroke-linecap="butt" stroke-miterlimit="4" stroke-width="1.0667" d="M6.4 15.467h19.2"></path>
<path stroke-linejoin="miter" stroke-linecap="butt" stroke-miterlimit="4" stroke-width="1.0667" d="M6.4 21.867h19.2"></path>
</symbol>
<symbol id="icon-phone" viewBox="0 0 32 32">
<path  d="M8.827 14.386c1.92 3.773 5.013 6.853 8.787 8.787l2.933-2.933c0.36-0.36 0.893-0.48 1.36-0.32 1.493 0.493 3.107 0.76 4.76 0.76 0.733 0 1.333 0.6 1.333 1.333v4.653c0 0.733-0.6 1.333-1.333 1.333-12.52 0-22.667-10.147-22.667-22.667 0-0.733 0.6-1.333 1.333-1.333h4.667c0.733 0 1.333 0.6 1.333 1.333 0 1.667 0.267 3.267 0.76 4.76 0.147 0.467 0.040 0.987-0.333 1.36l-2.933 2.933z"></path>
</symbol>
<symbol id="icon-mail" viewBox="0 0 32 32">
<path d="M26.667 5.333h-21.333c-1.467 0-2.653 1.2-2.653 2.667l-0.013 16c0 1.467 1.2 2.667 2.667 2.667h21.333c1.467 0 2.667-1.2 2.667-2.667v-16c0-1.467-1.2-2.667-2.667-2.667zM26.667 10.666l-10.667 6.667-10.667-6.667v-2.667l10.667 6.667 10.667-6.667v2.667z"></path>
</symbol>
<symbol id="icon-location" viewBox="0 0 32 32">
<path d="M16 2.666c-5.16 0-9.333 4.173-9.333 9.333 0 7 9.333 17.333 9.333 17.333s9.333-10.333 9.333-17.333c0-5.16-4.173-9.333-9.333-9.333zM16 15.333c-1.84 0-3.333-1.493-3.333-3.333s1.493-3.333 3.333-3.333 3.333 1.493 3.333 3.333c0 1.84-1.493 3.333-3.333 3.333z"></path>
</symbol>
<symbol id="icon-telegram" viewBox="0 0 32 32">
<path  d="M16 32c-8.837 0-16-7.163-16-16s7.163-16 16-16c8.837 0 16 7.163 16 16s-7.163 16-16 16zM11.912 24.245c-0.005 0.084-0.011 0.168-0.016 0.254 0.015 0 0.029 0 0.043 0.001 0.032 0.001 0.062 0.002 0.091-0.002 0.255-0.028 0.462-0.159 0.642-0.346 0.195-0.201 0.389-0.403 0.584-0.604 0.583-0.604 1.167-1.208 1.749-1.813 0.040-0.041 0.066-0.046 0.111-0.009 0.175 0.141 0.352 0.28 0.528 0.418 0.063 0.049 0.125 0.099 0.188 0.148 0.324 0.255 0.647 0.511 0.971 0.766 0.959 0.758 1.919 1.515 2.882 2.267 0.246 0.191 0.534 0.291 0.849 0.272 0.212-0.012 0.384-0.109 0.524-0.275 0.158-0.187 0.251-0.412 0.302-0.653 0.118-0.559 0.229-1.12 0.341-1.681 0.018-0.089 0.035-0.177 0.053-0.266 0.101-0.504 0.201-1.008 0.301-1.512 0.050-0.251 0.1-0.502 0.15-0.754 0.079-0.398 0.159-0.796 0.238-1.195s0.158-0.797 0.238-1.195c0.162-0.817 0.325-1.633 0.488-2.449l0.472-2.373c0.159-0.798 0.318-1.595 0.476-2.394 0.029-0.146 0.058-0.292 0.087-0.439 0.103-0.517 0.206-1.033 0.302-1.551 0.047-0.253 0.034-0.509-0.042-0.759-0.139-0.456-0.527-0.709-0.967-0.619-0.133 0.027-0.263 0.079-0.39 0.13-1.791 0.735-3.582 1.471-5.372 2.208-0.776 0.319-1.552 0.639-2.328 0.958-0.961 0.396-1.922 0.792-2.884 1.187-1.21 0.498-2.421 0.996-3.632 1.494l-0.018 0.007c-0.185 0.076-0.37 0.152-0.555 0.228-0.882 0.363-1.765 0.726-2.646 1.091-0.261 0.108-0.521 0.219-0.775 0.345-0.202 0.1-0.384 0.237-0.521 0.429-0.149 0.211-0.144 0.439 0.016 0.625 0.116 0.134 0.263 0.218 0.423 0.275 0.231 0.083 0.463 0.161 0.696 0.239 0.075 0.025 0.15 0.050 0.224 0.076 0.454 0.154 0.907 0.307 1.361 0.461 0.809 0.274 1.617 0.547 2.426 0.822 0.048 0.017 0.085 0.013 0.129-0.017 1.123-0.759 2.248-1.517 3.372-2.274 0.218-0.147 0.436-0.294 0.654-0.441l0.003-0.002c2.175-1.467 4.351-2.934 6.528-4.397 0.102-0.069 0.217-0.12 0.33-0.166 0.109-0.045 0.227-0.054 0.342-0.019 0.104 0.032 0.145 0.124 0.092 0.225-0.034 0.066-0.081 0.127-0.133 0.178-0.416 0.402-0.834 0.803-1.251 1.204-0.139 0.133-0.278 0.267-0.417 0.401-0.391 0.376-0.782 0.751-1.173 1.127s-0.782 0.752-1.173 1.128c-0.375 0.36-0.749 0.72-1.123 1.080s-0.749 0.72-1.123 1.080c-0.314 0.302-0.629 0.605-0.943 0.907-0.463 0.445-0.926 0.89-1.388 1.335-0.016 0.015-0.031 0.039-0.034 0.060-0.006 0.048-0.008 0.097-0.011 0.146-0.001 0.018-0.002 0.037-0.003 0.055-0.005 0.081-0.010 0.161-0.014 0.242s-0.009 0.161-0.014 0.242c-0.008 0.119-0.015 0.239-0.023 0.359-0.008 0.129-0.017 0.258-0.025 0.386-0.003 0.052-0.006 0.104-0.009 0.156-0.006 0.107-0.012 0.214-0.019 0.322-0.008 0.125-0.016 0.251-0.024 0.376s-0.016 0.25-0.024 0.376c-0.005 0.080-0.010 0.159-0.014 0.239s-0.009 0.159-0.014 0.239c-0.010 0.163-0.021 0.326-0.031 0.488-0.005 0.081-0.011 0.163-0.016 0.244-0.005 0.084-0.010 0.168-0.015 0.252s-0.010 0.168-0.015 0.252c-0.008 0.134-0.017 0.267-0.026 0.403z"></path>
</symbol>
<symbol id="icon-instagram" viewBox="0 0 32 32">
<path  d="M19.063 16c0 1.691-1.371 3.063-3.063 3.063s-3.063-1.371-3.063-3.063c0-1.691 1.371-3.063 3.063-3.063s3.063 1.371 3.063 3.063z"></path>
<path  d="M23.162 10.582c-0.147-0.399-0.382-0.76-0.687-1.056-0.296-0.305-0.657-0.54-1.056-0.687-0.324-0.126-0.81-0.275-1.706-0.316-0.969-0.044-1.26-0.054-3.713-0.054s-2.744 0.009-3.713 0.053c-0.896 0.041-1.382 0.191-1.706 0.316-0.399 0.147-0.76 0.382-1.056 0.687-0.305 0.296-0.54 0.657-0.688 1.056-0.126 0.324-0.275 0.81-0.316 1.706-0.044 0.969-0.054 1.259-0.054 3.713s0.010 2.744 0.054 3.713c0.041 0.896 0.19 1.382 0.316 1.706 0.147 0.399 0.382 0.76 0.687 1.056 0.296 0.305 0.657 0.54 1.056 0.687 0.324 0.126 0.81 0.276 1.706 0.316 0.969 0.044 1.259 0.053 3.712 0.053s2.744-0.009 3.713-0.053c0.896-0.041 1.382-0.19 1.706-0.316 0.801-0.309 1.434-0.942 1.744-1.744 0.126-0.324 0.275-0.81 0.316-1.706 0.044-0.969 0.053-1.26 0.053-3.713s-0.009-2.744-0.053-3.713c-0.041-0.896-0.19-1.382-0.316-1.706zM16 20.718c-2.606 0-4.718-2.112-4.718-4.718s2.112-4.718 4.718-4.718c2.605 0 4.718 2.112 4.718 4.718s-2.112 4.718-4.718 4.718zM20.904 12.198c-0.609 0-1.103-0.494-1.103-1.103s0.494-1.103 1.103-1.103c0.609 0 1.102 0.494 1.102 1.103s-0.494 1.103-1.102 1.103z"></path>
<path  d="M16 0c-8.835 0-16 7.165-16 16s7.165 16 16 16c8.835 0 16-7.165 16-16s-7.165-16-16-16zM25.132 19.788c-0.044 0.978-0.2 1.646-0.427 2.23-0.477 1.234-1.453 2.21-2.687 2.687-0.584 0.227-1.252 0.382-2.23 0.427-0.98 0.045-1.293 0.055-3.788 0.055s-2.808-0.011-3.788-0.055c-0.978-0.045-1.646-0.2-2.23-0.427-0.613-0.231-1.168-0.592-1.627-1.060-0.467-0.459-0.829-1.014-1.060-1.627-0.227-0.584-0.383-1.252-0.427-2.23-0.045-0.98-0.056-1.293-0.056-3.788s0.011-2.808 0.055-3.788c0.044-0.978 0.2-1.646 0.427-2.23 0.231-0.613 0.593-1.168 1.060-1.627 0.459-0.468 1.014-0.829 1.627-1.060 0.584-0.227 1.252-0.382 2.23-0.427 0.98-0.045 1.293-0.055 3.788-0.055s2.808 0.011 3.788 0.056c0.978 0.044 1.646 0.2 2.23 0.427 0.613 0.231 1.169 0.593 1.628 1.060 0.467 0.459 0.829 1.014 1.059 1.627 0.227 0.584 0.383 1.252 0.427 2.23 0.045 0.98 0.055 1.293 0.055 3.788s-0.011 2.808-0.055 3.788z"></path>
</symbol>
<symbol id="icon-youtube" viewBox="0 0 32 32">
<path  d="M14.007 18.997l5.205-2.998-5.205-2.998v5.995z"></path>
<path  d="M16 0c-8.835 0-16 7.165-16 16s7.165 16 16 16c8.835 0 16-7.165 16-16s-7.165-16-16-16zM25.998 16.016c0 0 0 3.245-0.412 4.81-0.231 0.856-0.906 1.532-1.762 1.762-1.565 0.412-7.823 0.412-7.823 0.412s-6.242 0-7.823-0.428c-0.856-0.231-1.532-0.906-1.762-1.762-0.412-1.548-0.412-4.809-0.412-4.809s0-3.245 0.412-4.809c0.23-0.856 0.922-1.548 1.762-1.779 1.565-0.412 7.823-0.412 7.823-0.412s6.259 0 7.823 0.428c0.856 0.23 1.532 0.906 1.762 1.762 0.428 1.565 0.412 4.826 0.412 4.826z"></path>
</symbol>
<symbol id="icon-facebook" viewBox="0 0 32 32">
<path d="M32 16c0-8.838-7.163-16-16-16s-16 7.162-16 16c0 8.837 7.162 16 16 16 0.094 0 0.188 0 0.281-0.006v-12.45h-3.437v-4.006h3.437v-2.95c0-3.419 2.088-5.281 5.138-5.281 1.463 0 2.719 0.106 3.081 0.156v3.575h-2.1c-1.656 0-1.981 0.787-1.981 1.944v2.55h3.969l-0.519 4.006h-3.45v11.844c6.688-1.919 11.581-8.075 11.581-15.381z"></path>
</symbol>
<symbol id="icon-arrow-right" viewBox="0 0 32 32">
<path d="M32 16.239v0.856l-8.217 8.239-0.51-0.535 4.491-7.329h-27.764v-1.605h27.764l-4.491-7.329 0.51-0.535 8.217 8.239z"></path>
</symbol>
<symbol id="icon-chevron-right" viewBox="0 0 18 32">
<path  d="M0 27.012l10.988-11.012-10.988-11.012 3.383-3.383 14.395 14.395-14.395 14.395-3.383-3.383z"></path>
</symbol>
<symbol id="icon-logo" viewBox="0 0 114 32">
<path  d="M49.281 5.618v4.312l0.436 0.132v0.132h-1.583v-0.132l0.45-0.152v-4.298l-0.45-0.132v-0.132h1.583v0.132l-0.436 0.138z"></path>
<path  d="M50.139 10.097l0.45-0.152v-4.332l-0.45-0.132v-0.132h1.17l2.711 3.834v-3.603l-0.45-0.132v-0.099h1.099v0.096l-0.45 0.138v4.608h-0.27l-3.167-4.47v4.245l0.45 0.138v0.090h-1.091v-0.096h-0.003z"></path>
<path  d="M55.274 10.040l-0.048-0.982h0.18c0.059 0.253 0.169 0.459 0.329 0.616s0.323 0.262 0.492 0.312c0.169 0.051 0.351 0.076 0.551 0.076 0.363 0 0.655-0.090 0.872-0.267s0.326-0.434 0.326-0.766c0-0.276-0.087-0.479-0.259-0.602s-0.486-0.256-0.945-0.394c-0.135-0.042-0.228-0.070-0.284-0.087s-0.143-0.045-0.262-0.087c-0.121-0.042-0.208-0.079-0.262-0.11-0.056-0.031-0.129-0.076-0.216-0.132s-0.157-0.113-0.2-0.172c-0.045-0.059-0.090-0.13-0.14-0.208s-0.084-0.169-0.104-0.27-0.028-0.211-0.028-0.327c0-0.397 0.129-0.718 0.388-0.966s0.653-0.372 1.181-0.372c0.428 0 0.815 0.101 1.162 0.304l0.236-0.172 0.076 0.076 0.048 0.977h-0.18c-0.084-0.369-0.239-0.628-0.47-0.78-0.231-0.149-0.484-0.225-0.762-0.225-0.326 0-0.588 0.087-0.785 0.259s-0.292 0.408-0.292 0.704c0 0.138 0.022 0.256 0.065 0.349 0.045 0.096 0.124 0.177 0.239 0.251 0.115 0.070 0.222 0.127 0.321 0.163s0.256 0.090 0.472 0.16c0.18 0.056 0.318 0.101 0.411 0.135s0.216 0.084 0.363 0.149 0.262 0.13 0.343 0.197c0.082 0.068 0.163 0.149 0.248 0.245s0.146 0.211 0.183 0.338c0.036 0.13 0.056 0.273 0.056 0.428 0 0.417-0.14 0.749-0.424 0.996s-0.714 0.374-1.297 0.374c-0.484 0-0.903-0.101-1.251-0.304l-0.242 0.186-0.090-0.073z"></path>
<path  d="M62.777 5.551h-1.26v4.38l0.45 0.132v0.132h-1.603v-0.132l0.45-0.152v-4.36h-1.266l-0.29 0.684h-0.18l0.042-0.887h4.081l0.042 0.873h-0.172l-0.295-0.67z"></path>
<path  d="M64.844 5.618v4.312l0.436 0.132v0.132h-1.583v-0.132l0.45-0.152v-4.298l-0.45-0.132v-0.132h1.583v0.132l-0.436 0.138z"></path>
<path  d="M69.442 5.551h-1.26v4.38l0.45 0.132v0.132h-1.603v-0.132l0.45-0.152v-4.36h-1.265l-0.29 0.684h-0.18l0.042-0.887h4.081l0.042 0.873h-0.171l-0.295-0.67z"></path>
<path  d="M74.594 5.585v2.823c0 0.557-0.174 1.002-0.523 1.329s-0.805 0.493-1.373 0.493c-0.568 0-1.023-0.163-1.372-0.493-0.349-0.327-0.523-0.771-0.523-1.329v-2.795l-0.45-0.132v-0.132h1.603v0.132l-0.45 0.138v2.79c0 0.481 0.132 0.853 0.394 1.117s0.61 0.397 1.043 0.397c0.439 0 0.793-0.135 1.060-0.403s0.405-0.639 0.405-1.115v-2.826l-0.45-0.132v-0.099h1.080v0.096l-0.444 0.141z"></path>
<path  d="M79.184 5.551h-1.26v4.38l0.45 0.132v0.132h-1.603v-0.132l0.45-0.152v-4.36h-1.265l-0.29 0.684h-0.18l0.042-0.887h4.081l0.042 0.873h-0.172l-0.295-0.67z"></path>
<path  d="M81.254 10.007h2.137l0.29-0.684h0.171l-0.042 0.873h-3.712v-0.11l0.45-0.11v-4.397l-0.45-0.118v-0.113h3.645l0.042 0.873h-0.171l-0.29-0.67h-2.067v2.055h1.645l0.138-0.518h0.16v1.224h-0.16l-0.138-0.512h-1.645v2.207h-0.003z"></path>
<path  d="M86.678 9.568c-0.427-0.445-0.644-1.044-0.644-1.796s0.214-1.351 0.644-1.796c0.427-0.445 0.99-0.667 1.687-0.667 0.692 0 1.251 0.222 1.679 0.667s0.644 1.044 0.644 1.796c0 0.752-0.214 1.351-0.644 1.796-0.427 0.445-0.99 0.667-1.679 0.667-0.695 0-1.257-0.222-1.687-0.667zM87.221 6.086c-0.287 0.4-0.433 0.963-0.433 1.692s0.143 1.292 0.433 1.686c0.29 0.394 0.669 0.591 1.145 0.591s0.855-0.197 1.144-0.591c0.29-0.394 0.433-0.957 0.433-1.686s-0.143-1.292-0.433-1.692c-0.287-0.4-0.669-0.6-1.144-0.6-0.472 0.003-0.855 0.203-1.145 0.6z"></path>
<path  d="M93.934 7.806h-1.527v2.111l0.655 0.146v0.132h-1.811v-0.132l0.45-0.152v-4.332l-0.45-0.118v-0.113h3.56l0.042 0.873h-0.171l-0.29-0.67h-1.985v2.063h1.527l0.138-0.512h0.16v1.219h-0.16l-0.138-0.515z"></path>
<path  d="M96.884 10.063l0.45-0.152v-4.298l-0.45-0.132v-0.132h1.603v0.132l-0.45 0.138v2.021h2.551v-2.027l-0.45-0.132v-0.132h1.603v0.132l-0.45 0.138v4.312l0.45 0.132v0.132h-1.603v-0.132l0.45-0.152v-2.077h-2.551v2.097l0.45 0.132v0.132h-1.603v-0.132z"></path>
<path  d="M104.747 5.348l1.949 4.583 0.45 0.132v0.132h-1.612v-0.132l0.436-0.132-0.56-1.343h-2.143l-0.582 1.343 0.588 0.132v0.132h-1.251v-0.132l0.45-0.132 1.997-4.583h0.278zM104.353 6.077l-1.001 2.319h1.971l-0.97-2.319z"></path>
<path  d="M108.569 5.618v4.312l0.436 0.132v0.132h-1.583v-0.132l0.45-0.152v-4.298l-0.45-0.132v-0.132h1.583v0.132l-0.436 0.138z"></path>
<path  d="M113.175 6.666c0 0.341-0.113 0.625-0.341 0.847-0.225 0.225-0.529 0.36-0.914 0.411 0.171 0.079 0.346 0.276 0.526 0.594l0.81 1.424 0.427 0.118v0.132h-1.038l-1.257-2.229h-0.81v1.965l0.45 0.132v0.132h-1.603v-0.132l0.45-0.152v-4.329l-0.45-0.118v-0.113h2.067c0.504 0 0.908 0.118 1.218 0.352 0.309 0.236 0.464 0.557 0.464 0.965zM111.398 5.551h-0.816v2.221h0.816c0.315 0 0.565-0.096 0.754-0.287s0.284-0.467 0.284-0.828c0-0.355-0.096-0.628-0.284-0.819s-0.442-0.287-0.754-0.287z"></path>
<path  d="M51.874 14.97c0 0.341-0.112 0.625-0.34 0.847-0.225 0.225-0.529 0.36-0.914 0.411 0.172 0.079 0.346 0.276 0.526 0.594l0.81 1.424 0.428 0.118v0.132h-1.038l-1.257-2.229h-0.81v1.965l0.45 0.132v0.132h-1.603v-0.132l0.45-0.152v-4.329l-0.45-0.118v-0.11h2.067c0.503 0 0.908 0.118 1.218 0.352 0.309 0.236 0.464 0.557 0.464 0.963zM50.097 13.855h-0.816v2.221h0.816c0.312 0 0.565-0.096 0.753-0.287s0.284-0.467 0.284-0.828c0-0.355-0.095-0.628-0.284-0.819s-0.441-0.287-0.753-0.287z"></path>
<path  d="M53.86 18.311h2.137l0.29-0.684h0.172l-0.042 0.873h-3.712v-0.11l0.45-0.11v-4.397l-0.45-0.118v-0.11h3.645l0.042 0.873h-0.172l-0.29-0.67h-2.067v2.055h1.645l0.138-0.518h0.16v1.224h-0.16l-0.138-0.512h-1.645v2.204h-0.003z"></path>
<path  d="M57.232 18.348l-0.048-0.982h0.18c0.059 0.253 0.169 0.459 0.329 0.616s0.323 0.262 0.492 0.312c0.169 0.051 0.351 0.076 0.551 0.076 0.363 0 0.655-0.090 0.872-0.267s0.326-0.433 0.326-0.766c0-0.276-0.087-0.479-0.259-0.602s-0.487-0.256-0.945-0.394c-0.135-0.042-0.228-0.070-0.284-0.087s-0.143-0.045-0.262-0.087c-0.121-0.042-0.208-0.079-0.262-0.11-0.056-0.031-0.129-0.076-0.216-0.132s-0.157-0.113-0.2-0.172c-0.045-0.059-0.090-0.129-0.141-0.208s-0.084-0.169-0.104-0.27-0.028-0.211-0.028-0.327c0-0.397 0.129-0.718 0.388-0.966s0.652-0.372 1.181-0.372c0.428 0 0.815 0.101 1.162 0.304l0.236-0.172 0.076 0.076 0.048 0.977h-0.18c-0.084-0.369-0.239-0.628-0.47-0.78-0.231-0.149-0.484-0.225-0.762-0.225-0.326 0-0.588 0.087-0.785 0.259s-0.292 0.408-0.292 0.704c0 0.138 0.022 0.256 0.065 0.349 0.045 0.096 0.124 0.177 0.239 0.251 0.115 0.070 0.222 0.127 0.321 0.163s0.256 0.090 0.472 0.16c0.18 0.056 0.318 0.101 0.41 0.135s0.217 0.084 0.363 0.149 0.262 0.13 0.343 0.197c0.082 0.068 0.163 0.149 0.248 0.245s0.146 0.211 0.183 0.338c0.036 0.13 0.056 0.273 0.056 0.428 0 0.417-0.141 0.749-0.424 0.996-0.284 0.251-0.714 0.374-1.297 0.374-0.484 0-0.903-0.101-1.251-0.304l-0.242 0.186-0.090-0.073z"></path>
<path  d="M64.735 13.855h-1.26v4.38l0.45 0.132v0.132h-1.603v-0.132l0.45-0.152v-4.36h-1.265l-0.29 0.684h-0.18l0.042-0.887h4.081l0.042 0.873h-0.171l-0.295-0.67z"></path>
<path  d="M66.318 17.872c-0.427-0.445-0.644-1.044-0.644-1.796s0.214-1.351 0.644-1.796c0.427-0.445 0.99-0.667 1.687-0.667 0.692 0 1.251 0.222 1.679 0.667s0.644 1.044 0.644 1.796c0 0.752-0.214 1.351-0.644 1.796-0.427 0.445-0.99 0.667-1.679 0.667-0.698 0.003-1.26-0.22-1.687-0.667zM66.861 14.393c-0.287 0.4-0.433 0.963-0.433 1.692s0.143 1.292 0.433 1.686c0.287 0.394 0.669 0.591 1.145 0.591s0.855-0.197 1.144-0.591c0.287-0.394 0.433-0.957 0.433-1.686s-0.143-1.292-0.433-1.692c-0.287-0.4-0.669-0.6-1.144-0.6s-0.858 0.2-1.145 0.6z"></path>
<path  d="M74.636 14.97c0 0.341-0.112 0.625-0.34 0.847-0.225 0.225-0.529 0.36-0.914 0.411 0.171 0.079 0.346 0.276 0.526 0.594l0.81 1.424 0.427 0.118v0.132h-1.038l-1.257-2.229h-0.81v1.965l0.45 0.132v0.132h-1.603v-0.132l0.45-0.152v-4.329l-0.45-0.118v-0.11h2.067c0.504 0 0.908 0.118 1.218 0.352 0.309 0.236 0.464 0.557 0.464 0.963zM72.859 13.855h-0.816v2.221h0.816c0.315 0 0.565-0.096 0.754-0.287s0.284-0.467 0.284-0.828c0-0.355-0.096-0.628-0.284-0.819-0.191-0.191-0.442-0.287-0.754-0.287z"></path>
<path  d="M78.059 13.655l1.949 4.583 0.45 0.132v0.132h-1.612v-0.132l0.436-0.132-0.56-1.343h-2.143l-0.582 1.343 0.588 0.132v0.132h-1.251v-0.132l0.45-0.132 1.999-4.583h0.276zM77.663 14.381l-1.001 2.319h1.971l-0.97-2.319z"></path>
<path  d="M83.948 13.855h-1.26v4.38l0.45 0.132v0.132h-1.603v-0.132l0.45-0.152v-4.36h-1.265l-0.29 0.684h-0.18l0.042-0.887h4.081l0.042 0.873h-0.171l-0.295-0.67z"></path>
<path  d="M86.015 13.925v4.312l0.436 0.132v0.132h-1.583v-0.132l0.45-0.152v-4.301l-0.45-0.132v-0.132h1.583v0.132l-0.436 0.141z"></path>
<path  d="M87.668 17.872c-0.427-0.445-0.644-1.044-0.644-1.796s0.214-1.351 0.644-1.796c0.427-0.445 0.99-0.667 1.687-0.667 0.692 0 1.251 0.222 1.679 0.667s0.644 1.044 0.644 1.796c0 0.752-0.214 1.351-0.644 1.796-0.427 0.445-0.99 0.667-1.679 0.667-0.698 0.003-1.26-0.22-1.687-0.667zM88.211 14.393c-0.287 0.4-0.433 0.963-0.433 1.692s0.143 1.292 0.433 1.686c0.287 0.394 0.669 0.591 1.145 0.591s0.855-0.197 1.144-0.591c0.287-0.394 0.433-0.957 0.433-1.686s-0.143-1.292-0.433-1.692c-0.287-0.4-0.669-0.6-1.144-0.6s-0.858 0.2-1.145 0.6z"></path>
<path  d="M92.238 18.401l0.45-0.152v-4.332l-0.45-0.132v-0.132h1.17l2.711 3.834v-3.603l-0.45-0.132v-0.096h1.1v0.096l-0.45 0.138v4.608h-0.27l-3.167-4.47v4.242l0.45 0.138v0.090h-1.091v-0.096h-0.003z"></path>
<path  d="M48.334 26.933l-0.048-0.982h0.18c0.059 0.253 0.169 0.459 0.329 0.616s0.323 0.262 0.492 0.312c0.169 0.051 0.351 0.076 0.548 0.076 0.363 0 0.655-0.090 0.872-0.267s0.326-0.433 0.326-0.766c0-0.276-0.087-0.479-0.259-0.602-0.174-0.124-0.486-0.256-0.945-0.394-0.135-0.042-0.228-0.070-0.284-0.087s-0.143-0.045-0.262-0.087c-0.121-0.042-0.208-0.079-0.262-0.11-0.056-0.031-0.129-0.076-0.216-0.132-0.090-0.056-0.157-0.113-0.2-0.172-0.045-0.059-0.090-0.13-0.141-0.208s-0.084-0.169-0.104-0.27-0.028-0.211-0.028-0.327c0-0.397 0.129-0.718 0.388-0.965s0.653-0.372 1.181-0.372c0.428 0 0.816 0.101 1.162 0.304l0.236-0.172 0.076 0.076 0.048 0.977h-0.18c-0.081-0.369-0.239-0.628-0.47-0.78-0.231-0.149-0.484-0.225-0.759-0.225-0.326 0-0.588 0.087-0.785 0.259s-0.292 0.408-0.292 0.704c0 0.138 0.022 0.256 0.065 0.349 0.045 0.096 0.124 0.177 0.239 0.251 0.115 0.070 0.222 0.127 0.321 0.163s0.256 0.090 0.472 0.16c0.18 0.056 0.318 0.101 0.411 0.135s0.216 0.084 0.363 0.149 0.262 0.13 0.343 0.197c0.082 0.068 0.163 0.149 0.25 0.245 0.084 0.096 0.146 0.211 0.183 0.338 0.037 0.13 0.056 0.273 0.056 0.428 0 0.417-0.141 0.749-0.425 0.996s-0.714 0.374-1.297 0.374c-0.484 0-0.9-0.101-1.251-0.304l-0.242 0.186-0.093-0.073z"></path>
<path  d="M56.335 22.477v2.823c0 0.557-0.174 1.002-0.523 1.329s-0.804 0.493-1.372 0.493c-0.568 0-1.023-0.163-1.372-0.493-0.349-0.327-0.523-0.771-0.523-1.329v-2.795l-0.45-0.132v-0.132h1.603v0.132l-0.45 0.138v2.79c0 0.481 0.132 0.853 0.394 1.118s0.61 0.397 1.043 0.397c0.439 0 0.793-0.135 1.060-0.403s0.405-0.639 0.405-1.115v-2.829l-0.45-0.132v-0.096h1.080v0.096l-0.444 0.141z"></path>
<path  d="M60.932 23.555c0 0.341-0.113 0.625-0.34 0.847-0.225 0.225-0.529 0.36-0.914 0.411 0.172 0.079 0.346 0.276 0.526 0.594l0.81 1.424 0.427 0.118v0.132h-1.038l-1.257-2.229h-0.81v1.965l0.45 0.132v0.132h-1.603v-0.132l0.45-0.152v-4.329l-0.45-0.118v-0.11h2.067c0.503 0 0.908 0.118 1.218 0.352 0.309 0.236 0.464 0.557 0.464 0.963zM59.155 22.44h-0.815v2.221h0.815c0.315 0 0.565-0.096 0.754-0.287s0.284-0.467 0.284-0.828c0-0.355-0.096-0.628-0.284-0.819-0.191-0.189-0.442-0.287-0.754-0.287z"></path>
<path  d="M65.778 25.030v1.807l-0.096 0.090-0.346-0.172c-0.391 0.251-0.855 0.374-1.389 0.374-0.728 0-1.308-0.22-1.738-0.662-0.43-0.439-0.647-1.039-0.647-1.796s0.217-1.357 0.65-1.802c0.433-0.445 1.010-0.667 1.73-0.667 0.557 0 1.027 0.13 1.403 0.388l0.262-0.16 0.081 0.084 0.048 0.949h-0.18c-0.059-0.211-0.149-0.391-0.27-0.54-0.121-0.146-0.256-0.256-0.408-0.327s-0.293-0.115-0.422-0.141c-0.129-0.025-0.262-0.039-0.394-0.039-0.557 0-0.99 0.191-1.294 0.577s-0.456 0.943-0.456 1.672c0 0.678 0.149 1.219 0.447 1.619 0.298 0.403 0.728 0.602 1.297 0.602 0.402 0 0.739-0.101 1.015-0.304v-1.559l-0.45-0.132v-0.132h1.592v0.132l-0.436 0.138z"></path>
<path  d="M67.777 26.899h2.137l0.29-0.684h0.171l-0.042 0.873h-3.712v-0.11l0.45-0.11v-4.4l-0.45-0.118v-0.11h3.645l0.042 0.873h-0.171l-0.29-0.67h-2.067v2.055h1.645l0.138-0.518h0.16v1.224h-0.16l-0.138-0.512h-1.645v2.207h-0.003z"></path>
<path  d="M74.69 23.555c0 0.341-0.113 0.625-0.341 0.847-0.225 0.225-0.529 0.36-0.914 0.411 0.172 0.079 0.346 0.276 0.526 0.594l0.81 1.424 0.427 0.118v0.132h-1.038l-1.257-2.229h-0.81v1.965l0.45 0.132v0.132h-1.603v-0.132l0.45-0.152v-4.329l-0.45-0.118v-0.11h2.067c0.503 0 0.908 0.118 1.218 0.352 0.309 0.236 0.464 0.557 0.464 0.963zM72.913 22.44h-0.815v2.221h0.815c0.315 0 0.565-0.096 0.754-0.287s0.284-0.467 0.284-0.828c0-0.355-0.096-0.628-0.284-0.819-0.188-0.189-0.439-0.287-0.754-0.287z"></path>
<path  d="M76.045 22.497l1.437 2.305 1.46-2.305-0.56-0.124v-0.132h1.257v0.132l-0.478 0.124-1.597 2.519v1.807l0.442 0.132v0.132h-1.597v-0.132l0.45-0.152v-1.779l-1.578-2.525-0.436-0.124v-0.132h1.64v0.132l-0.439 0.121z"></path>
<path  d="M16.955 0l-0.236 0.242c-0.003-0.011-0.006-0.022-0.008-0.031l0.217-0.211h0.028z"></path>
<path  d="M13.856 18.176l0.529-0.538h-0.003l-0.526 0.538z"></path>
<path  d="M13.502 9.219c-0.096 0.203-0.186 0.408-0.273 0.616l-11.868 12.076c-0.070-0.177-0.141-0.36-0.205-0.54l12.346-12.152z"></path>
<path  d="M13.212 12.873l-1.094 1.126c0.006-0.014 0.006-0.031 0.008-0.048l-9.809 9.965c-0.087-0.155-0.172-0.312-0.256-0.47l10.144-10.001c0.017-0.115 0.031-0.225 0.051-0.341l0.953-0.923c-0.003 0.073 0.003 0.692 0.003 0.692z"></path>
<path  d="M13.828 0.166l-13.457 13.832c0.037-0.301 0.082-0.597 0.138-0.892l13.265-12.932c0.017-0.003 0.034-0.006 0.053-0.008z"></path>
<path  d="M15.377 4.639l-14.722 15.015c-0.045-0.208-0.090-0.419-0.132-0.631l14.812-14.542c0.011 0.051 0.028 0.104 0.042 0.158z"></path>
<path  d="M9.666 1.405l-8.217 8.504c0.172-0.419 0.363-0.828 0.568-1.227l7.393-7.161c0.084-0.039 0.172-0.076 0.256-0.115z"></path>
<path  d="M20.645 26.075l-5.872 5.911c-0.059-0.009-0.118-0.009-0.177-0.017l3.428-3.414c-0.025-0.020-0.053-0.039-0.076-0.059l2.562-2.559 0.135 0.138z"></path>
<path  d="M16.544 27.215l-0.003 0.003c-0.011-0.014-0.023-0.028-0.034-0.040 0.014 0.011 0.025 0.025 0.037 0.037z"></path>
<path  d="M19.598 0.332l-2.104 2.142c-0.011-0.028-0.022-0.053-0.034-0.082l2.104-2.069c0.008 0.003 0.022 0.008 0.034 0.008z"></path>
<path  d="M14.823 2.185l-14.545 14.885c-0.017-0.245-0.028-0.493-0.031-0.743l14.559-14.255c0.008 0.037 0.011 0.073 0.017 0.113z"></path>
<path  d="M27.715 21.94l-3.771 3.797c-0.017-0.020-0.031-0.039-0.048-0.065h-0.003c-0.020-0.025-0.045-0.053-0.065-0.082l3.782-3.769c0.020 0.020 0.037 0.039 0.056 0.062h0.003l-3.344 3.361 3.341-3.361c0.014 0.011 0.034 0.042 0.048 0.056z"></path>
<path  d="M30.161 25.334l-3.979 4.003c-0.020-0.037-0.034-0.073-0.053-0.115l3.985-3.969c0.017 0.025 0.034 0.053 0.048 0.082z"></path>
<path  d="M41.739 7.749l-11.409 11.462c-0.014-0.020-0.031-0.039-0.045-0.059l11.446-11.417c0.003 0.008 0.003 0.011 0.008 0.014z"></path>
<path  d="M42.743 9.712l-11.193 11.248c-0.008-0.014-0.031-0.053-0.039-0.065l11.226-11.195c0.003 0.003 0.006 0.008 0.006 0.011z"></path>
<path  d="M43.955 14.44l-10.388 10.452c-0.011-0.025-0.023-0.065-0.031-0.084l10.414-10.376c0.003 0.003 0.006 0.008 0.006 0.008z"></path>
<path  d="M43.502 11.924l-10.861 10.919c-0.006-0.011-0.036-0.062-0.039-0.070l10.895-10.857c0.003 0.003 0.006 0.006 0.006 0.008z"></path>
<path  d="M26.277 20.304l-3.757 3.769c-0.022-0.023-0.045-0.048-0.070-0.073l3.768-3.761c0.020 0.025 0.039 0.045 0.059 0.065z"></path>
<path  d="M26.325 20.357l-3.752 3.775c-0.017-0.020-0.037-0.039-0.053-0.059l3.757-3.769c0.014 0.011 0.039 0.042 0.048 0.053z"></path>
<path  d="M43.196 21.126c-0.006 0.011-0.008 0.025-0.014 0.037l-8.569 8.645c0-0.020-0.008-0.133-0.008-0.147l8.591-8.535z"></path>
<path  d="M24.489 31.040l-0.503 0.507c-0.048-0.014-0.11-0.034-0.146-0.042l0.585-0.583c0.014 0.025 0.048 0.087 0.065 0.118z"></path>
<path  d="M40.519 6.004l-11.513 11.561c-0.017-0.020-0.031-0.037-0.048-0.056l11.55-11.519c0.003 0.003 0.006 0.008 0.011 0.014z"></path>
<path  d="M32.011 29.444l-2.528 2.542c-0.065 0.006-0.138 0.011-0.203 0.014l2.691-2.677c0.011 0.040 0.028 0.076 0.039 0.121z"></path>
<path  d="M15.174 25.613l-0.002 0.003v-0.003h0.002z"></path>
<path  d="M43.969 17.388c0 0.003-0.003 0.008-0.003 0.011l-9.697 9.768c-0.006-0.025-0.017-0.068-0.025-0.104l9.725-9.675z"></path>
<path  d="M19.773 29.774l-0.003 0.003h-0.003l0.003-0.003h0.003z"></path>
<path  d="M39.124 4.476l-11.454 11.609c0 0-0.149-0.158-0.197-0.208l11.589-11.462 0.062 0.062z"></path>
<path  d="M19.238 24.625l-2.629 2.66c-0.020-0.020-0.053-0.056-0.067-0.068l-4.303 4.329c-0.051-0.014-0.098-0.031-0.149-0.042l4.381-4.366c-0.062-0.068-0.129-0.132-0.191-0.2l2.655-2.623c0.059 0.062 0.304 0.31 0.304 0.31z"></path>
<path  d="M12.025 17.069v-0.025l-8.535 8.656c-0.101-0.132-0.197-0.27-0.295-0.405l8.811-8.704c0-0.087-0.008-0.172-0.008-0.265l1.485-1.453c0.014 0.070 0.104 0.442 0.132 0.555 0 0.006 0.006 0.008 0.006 0.008l-1.595 1.633z"></path>
<path  d="M25.707 3.066c0.020 0.017 0.034 0.028 0.053 0.045l-5.025 5.098c-0.008-0.011-0.155-0.217-0.18-0.256l8.119-7.952h0.028l-2.995 3.065z"></path>
<path  d="M15.369 19.609l-2.258 2.303c-0.020-0.045-0.037-0.087-0.051-0.13l-6.763 6.79c-0.034-0.025-0.065-0.051-0.098-0.076l6.825-6.809c-0.039-0.107-0.082-0.208-0.118-0.315l2.222-2.187c0.022 0.039 0.222 0.394 0.242 0.425z"></path>
<path  d="M14.382 17.635v0.006l-1.977 2.013v-0.008l-7.542 7.64c-0.112-0.113-0.222-0.228-0.329-0.346l7.784-7.699c0.008 0.045 0.020 0.090 0.028 0.135-0.008-0.045-0.017-0.090-0.025-0.135-0.017-0.070-0.034-0.144-0.048-0.217l1.904-1.869c0.025 0.059 0.163 0.38 0.205 0.481z"></path>
<path  d="M37.51 3.11l-11.308 11.468c-0.008-0.008-0.152-0.155-0.2-0.206l11.448-11.307c0.020 0.017 0.040 0.028 0.059 0.045z"></path>
<path  d="M23.434 17.385l-3.704 3.758c-0.014-0.020-0.245-0.279-0.27-0.307l3.737-3.693c0.031 0.031 0.236 0.242 0.236 0.242z"></path>
<path  d="M24.913 18.871l-3.746 3.794c-0.011-0.011-0.264-0.276-0.276-0.287l3.782-3.741c0.011 0.011 0.225 0.22 0.239 0.234z"></path>
<path  d="M23.893 25.672l0.003 0.003 0.43-0.433-0.433 0.431z"></path>
<path  d="M28.997 23.581l-3.839 3.865c-0.006-0.011-0.076-0.121-0.082-0.132l3.842-3.831c0.006 0.008 0.070 0.087 0.079 0.099z"></path>
<path  d="M23.943 1.942l-4.404 4.476c-0.008-0.006-0.014-0.020-0.020-0.025v-0.003c-0.020-0.034-0.039-0.070-0.059-0.101-0.025-0.042-0.053-0.087-0.076-0.13l6.136-5.984c0.020 0 0.037-0.006 0.056-0.008l-1.699 1.742c0 0 0.039 0.023 0.065 0.034z"></path>
<path  d="M16.148 6.86l-1.876 1.934c0-0.006 0-0.014 0.003-0.025v-0.003c0.011-0.113 0.079-0.566 0.098-0.673l1.634-1.582c0.022 0.059 0.141 0.349 0.141 0.349z"></path>
<path  d="M23.381 29.286l-1.867 1.883c-0.090 0.031-0.177 0.059-0.267 0.090l0.489-0.481c-0.031-0.014-0.067-0.031-0.096-0.042l1.617-1.616c0.011 0.014 0.115 0.158 0.124 0.166z"></path>
<path  d="M27.374 4.476l-5.363 5.438c-0.008-0.011-0.183-0.234-0.203-0.256l9.502-9.334c0.012 0.003 0.023 0.008 0.031 0.008l-4.013 4.096c0 0 0.031 0.034 0.045 0.048z"></path>
<path  d="M21.899 1.005l-3.448 3.51c-0.008-0.008-0.011-0.020-0.014-0.025v-0.003c-0.017-0.025-0.034-0.053-0.045-0.082-0.022-0.048-0.045-0.093-0.070-0.138l2.838-2.745c0.084-0.039 0.169-0.079 0.256-0.118l0.014 0.011 0.43-0.425c0.008 0.003 0.031 0.011 0.039 0.014z"></path>
<path  d="M16.519 21.419l-2.455 2.497c-0.020-0.034-0.039-0.070-0.059-0.107l-5.954 5.982c-0.039-0.022-0.076-0.042-0.115-0.068l6.021-6.001c0 0-0.098-0.183-0.146-0.273l2.444-2.415c0.056 0.079 0.264 0.386 0.264 0.386z"></path>
<path  d="M19.362 12.597l-3.355 3.395c-0.023-0.048-0.191-0.369-0.219-0.419l3.349-3.288c0.028 0.039 0.225 0.312 0.225 0.312z"></path>
<path  d="M29.99 7.749l-1.221 1.227-4.027 4.093c-0.008-0.008-0.172-0.18-0.197-0.208l11.097-10.944c0.014 0.006 0.042 0.023 0.051 0.025l-5.709 5.799c0 0 0.003 0.006 0.006 0.008z"></path>
<path  d="M18.173 10.809l-3.105 3.147c0 0-0.152-0.417-0.172-0.47l3.077-3.009c0.023 0.039 0.183 0.304 0.2 0.332z"></path>
<path  d="M22.065 27.623l-4.328 4.363c-0.067 0.006-0.135 0.011-0.205 0.014l2.236-2.224c-0.028-0.017-0.056-0.037-0.084-0.053l2.255-2.249c0.022 0.028 0.112 0.13 0.127 0.149z"></path>
<path  d="M20.622 14.263l-3.496 3.561c-0.020-0.028-0.197-0.296-0.245-0.369l3.524-3.468c0.028 0.039 0.183 0.236 0.217 0.276z"></path>
<path  d="M28.758 5.991c0.003 0.003 0.008 0.011 0.011 0.014l-2.255 2.263v0.003l-3.186 3.24c-0.014-0.020-0.174-0.194-0.188-0.217l10.467-10.303c0.017 0.006 0.028 0.011 0.042 0.014l-4.89 4.985z"></path>
<path  d="M17.818 23.085l-2.579 2.615c-0.022-0.028-0.065-0.087-0.065-0.087l-5.155 5.179c-0.045-0.017-0.084-0.039-0.127-0.056l5.219-5.208c-0.053-0.079-0.112-0.155-0.169-0.234l2.59-2.562c0.059 0.070 0.264 0.327 0.284 0.352z"></path>
<path  d="M21.991 15.862l-3.619 3.676c-0.014-0.020-0.239-0.312-0.259-0.338l3.645-3.595c0.011 0.014 0.219 0.245 0.233 0.256z"></path>
<path  d="M17.098 8.901l-2.688 2.728c-0.017-0.104-0.073-0.45-0.084-0.54l2.599-2.531c0.025 0.051 0.157 0.312 0.174 0.343z"></path>
<path  d="M22.515 24.081v0z"></path>
<path  d="M31.196 27.276l-4.68 4.709c-0.059-0.008-0.118-0.008-0.177-0.017l4.815-4.791c0.017 0.031 0.031 0.062 0.042 0.099z"></path>
</symbol>
</defs>
</svg>
