<svg aria-hidden="true" style="width:0;height:0;position:absolute;overflow:hidden" xmlns="http://www.w3.org/2000/svg"><defs><symbol id="icon-menu" viewBox="0 0 32 32"><path stroke-width="1.067" d="M6.4 9.067h19.2M6.4 15.467h19.2M6.4 21.867h19.2"/></symbol><symbol id="icon-phone" viewBox="0 0 32 32"><path d="M8.827 14.386a20.201 20.201 0 0 0 8.787 8.787l2.933-2.933c.36-.36.893-.48 1.36-.32 1.493.493 3.107.76 4.76.76.733 0 1.333.6 1.333 1.333v4.653c0 .733-.6 1.333-1.333 1.333C14.147 27.999 4 17.852 4 5.332c0-.733.6-1.333 1.333-1.333H10c.733 0 1.333.6 1.333 1.333 0 1.667.267 3.267.76 4.76.147.467.04.987-.333 1.36l-2.933 2.933z"/></symbol><symbol id="icon-mail" viewBox="0 0 32 32"><path d="M26.667 5.333H5.334A2.663 2.663 0 0 0 2.681 8l-.013 16c0 1.467 1.2 2.667 2.667 2.667h21.333c1.467 0 2.667-1.2 2.667-2.667V8c0-1.467-1.2-2.667-2.667-2.667zm0 5.333L16 17.333 5.333 10.666V7.999L16 14.666l10.667-6.667v2.667z"/></symbol><symbol id="icon-location" viewBox="0 0 32 32"><path d="M16 2.666a9.326 9.326 0 0 0-9.333 9.333c0 7 9.333 17.333 9.333 17.333s9.333-10.333 9.333-17.333A9.326 9.326 0 0 0 16 2.666zm0 12.667a3.334 3.334 0 0 1 0-6.666 3.334 3.334 0 0 1 0 6.666z"/></symbol><symbol id="icon-telegram" viewBox="0 0 32 32"><path d="M16 32C7.163 32 0 24.837 0 16S7.163 0 16 0s16 7.163 16 16-7.163 16-16 16zm-4.088-7.755-.016.254.043.001c.032.001.062.002.091-.002.255-.028.462-.159.642-.346l.584-.604c.583-.604 1.167-1.208 1.749-1.813.04-.041.066-.046.111-.009.175.141.352.28.528.418l.188.148.971.766c.959.758 1.919 1.515 2.882 2.267.246.191.534.291.849.272a.72.72 0 0 0 .524-.275c.158-.187.251-.412.302-.653.118-.559.229-1.12.341-1.681l.053-.266a807.795 807.795 0 0 0 .451-2.266l.238-1.195.238-1.195.488-2.449.472-2.373.476-2.394.087-.439c.103-.517.206-1.033.302-1.551a1.59 1.59 0 0 0-.042-.759c-.139-.456-.527-.709-.967-.619a2.288 2.288 0 0 0-.39.13c-1.791.735-3.582 1.471-5.372 2.208l-2.328.958-2.884 1.187-3.632 1.494-.018.007-.555.228c-.882.363-1.765.726-2.646 1.091-.261.108-.521.219-.775.345-.202.1-.384.237-.521.429-.149.211-.144.439.016.625a.975.975 0 0 0 .423.275c.231.083.463.161.696.239l.224.076 1.361.461 2.426.822a.129.129 0 0 0 .129-.017c1.123-.759 2.248-1.517 3.372-2.274l.654-.441.003-.002c2.175-1.467 4.351-2.934 6.528-4.397a1.79 1.79 0 0 1 .33-.166.503.503 0 0 1 .342-.019c.104.032.145.124.092.225a.708.708 0 0 1-.133.178c-.416.402-.834.803-1.251 1.204l-.417.401-1.173 1.127-1.173 1.128-1.123 1.08-1.123 1.08-.943.907-1.388 1.335a.114.114 0 0 0-.034.06c-.006.048-.008.097-.011.146l-.003.055-.014.242-.014.242-.023.359-.025.386-.009.156a36.92 36.92 0 0 1-.019.322l-.024.376-.024.376-.014.239-.014.239-.031.488-.016.244-.015.252-.015.252-.026.403z"/></symbol><symbol id="icon-instagram" viewBox="0 0 32 32"><path d="M19.063 16a3.063 3.063 0 1 1-6.126 0 3.063 3.063 0 0 1 6.126 0z"/><path d="M23.162 10.582a2.84 2.84 0 0 0-.687-1.056 2.84 2.84 0 0 0-1.056-.687c-.324-.126-.81-.275-1.706-.316-.969-.044-1.26-.054-3.713-.054s-2.744.009-3.713.053c-.896.041-1.382.191-1.706.316a2.84 2.84 0 0 0-1.056.687c-.305.296-.54.657-.688 1.056-.126.324-.275.81-.316 1.706-.044.969-.054 1.259-.054 3.713s.01 2.744.054 3.713c.041.896.19 1.382.316 1.706.147.399.382.76.687 1.056.296.305.657.54 1.056.687.324.126.81.276 1.706.316.969.044 1.259.053 3.712.053s2.744-.009 3.713-.053c.896-.041 1.382-.19 1.706-.316a3.045 3.045 0 0 0 1.744-1.744c.126-.324.275-.81.316-1.706.044-.969.053-1.26.053-3.713s-.009-2.744-.053-3.713c-.041-.896-.19-1.382-.316-1.706zM16 20.718a4.718 4.718 0 1 1 0-9.435 4.718 4.718 0 0 1 0 9.435zm4.904-8.52a1.103 1.103 0 1 1 0-2.206 1.103 1.103 0 0 1 0 2.206z"/><path d="M16 0C7.165 0 0 7.165 0 16s7.165 16 16 16 16-7.165 16-16S24.835 0 16 0zm9.132 19.788c-.044.978-.2 1.646-.427 2.23a4.697 4.697 0 0 1-2.687 2.687c-.584.227-1.252.382-2.23.427-.98.045-1.293.055-3.788.055s-2.808-.011-3.788-.055c-.978-.045-1.646-.2-2.23-.427a4.5 4.5 0 0 1-1.627-1.06 4.513 4.513 0 0 1-1.06-1.627c-.227-.584-.383-1.252-.427-2.23-.045-.98-.056-1.293-.056-3.788s.011-2.808.055-3.788c.044-.978.2-1.646.427-2.23a4.513 4.513 0 0 1 1.06-1.627 4.5 4.5 0 0 1 1.627-1.06c.584-.227 1.252-.382 2.23-.427.98-.045 1.293-.055 3.788-.055s2.808.011 3.788.056c.978.044 1.646.2 2.23.427a4.517 4.517 0 0 1 1.628 1.06 4.498 4.498 0 0 1 1.059 1.627c.227.584.383 1.252.427 2.23.045.98.055 1.293.055 3.788s-.011 2.808-.055 3.788z"/></symbol><symbol id="icon-youtube" viewBox="0 0 32 32"><path d="m14.007 18.997 5.205-2.998-5.205-2.998v5.995z"/><path d="M16 0C7.165 0 0 7.165 0 16s7.165 16 16 16 16-7.165 16-16S24.835 0 16 0zm9.998 16.016s0 3.245-.412 4.81a2.506 2.506 0 0 1-1.762 1.762C22.259 23 16.001 23 16.001 23s-6.242 0-7.823-.428a2.506 2.506 0 0 1-1.762-1.762c-.412-1.548-.412-4.809-.412-4.809s0-3.245.412-4.809a2.557 2.557 0 0 1 1.762-1.779c1.565-.412 7.823-.412 7.823-.412s6.259 0 7.823.428c.856.23 1.532.906 1.762 1.762.428 1.565.412 4.826.412 4.826z"/></symbol><symbol id="icon-facebook" viewBox="0 0 32 32"><path d="M32 16c0-8.838-7.163-16-16-16S0 7.162 0 16c0 8.837 7.162 16 16 16 .094 0 .188 0 .281-.006v-12.45h-3.437v-4.006h3.437v-2.95c0-3.419 2.088-5.281 5.138-5.281 1.463 0 2.719.106 3.081.156v3.575h-2.1c-1.656 0-1.981.787-1.981 1.944v2.55h3.969l-.519 4.006h-3.45v11.844C27.107 29.463 32 23.307 32 16.001z"/></symbol><symbol id="icon-arrow-right" viewBox="0 0 32 32"><path d="M32 16.239v.856l-8.217 8.239-.51-.535 4.491-7.329H0v-1.605h27.764l-4.491-7.329.51-.535L32 16.24z"/></symbol><symbol id="icon-chevron-right" viewBox="0 0 18 32"><path d="M0 27.012 10.988 16 0 4.988l3.383-3.383L17.778 16 3.383 30.395 0 27.012z"/></symbol><symbol id="icon-logo" viewBox="0 0 114 32"><path d="M49.281 5.618V9.93l.436.132v.132h-1.583v-.132l.45-.152V5.612l-.45-.132v-.132h1.583v.132l-.436.138zM50.139 10.097l.45-.152V5.613l-.45-.132v-.132h1.17l2.711 3.834V5.58l-.45-.132v-.099h1.099v.096l-.45.138v4.608h-.27l-3.167-4.47v4.245l.45.138v.09h-1.091v-.096h-.003zM55.274 10.04l-.048-.982h.18c.059.253.169.459.329.616s.323.262.492.312c.169.051.351.076.551.076.363 0 .655-.09.872-.267s.326-.434.326-.766c0-.276-.087-.479-.259-.602s-.486-.256-.945-.394l-.284-.087a6.34 6.34 0 0 1-.262-.087 1.655 1.655 0 0 1-.262-.11c-.056-.031-.129-.076-.216-.132s-.157-.113-.2-.172c-.045-.059-.09-.13-.14-.208s-.084-.169-.104-.27-.028-.211-.028-.327c0-.397.129-.718.388-.966s.653-.372 1.181-.372c.428 0 .815.101 1.162.304l.236-.172.076.076.048.977h-.18c-.084-.369-.239-.628-.47-.78a1.376 1.376 0 0 0-.762-.225c-.326 0-.588.087-.785.259s-.292.408-.292.704c0 .138.022.256.065.349a.617.617 0 0 0 .239.251c.115.07.222.127.321.163s.256.09.472.16c.18.056.318.101.411.135s.216.084.363.149.262.13.343.197c.082.068.163.149.248.245s.146.211.183.338a1.6 1.6 0 0 1 .056.428c0 .417-.14.749-.424.996s-.714.374-1.297.374c-.484 0-.903-.101-1.251-.304l-.242.186-.09-.073zM62.777 5.551h-1.26v4.38l.45.132v.132h-1.603v-.132l.45-.152v-4.36h-1.266l-.29.684h-.18l.042-.887h4.081l.042.873h-.172l-.295-.67zM64.844 5.618V9.93l.436.132v.132h-1.583v-.132l.45-.152V5.612l-.45-.132v-.132h1.583v.132l-.436.138zM69.442 5.551h-1.26v4.38l.45.132v.132h-1.603v-.132l.45-.152v-4.36h-1.265l-.29.684h-.18l.042-.887h4.081l.042.873h-.171l-.295-.67zM74.594 5.585v2.823c0 .557-.174 1.002-.523 1.329s-.805.493-1.373.493-1.023-.163-1.372-.493c-.349-.327-.523-.771-.523-1.329V5.613l-.45-.132v-.132h1.603v.132l-.45.138v2.79c0 .481.132.853.394 1.117s.61.397 1.043.397c.439 0 .793-.135 1.06-.403s.405-.639.405-1.115V5.579l-.45-.132v-.099h1.08v.096l-.444.141zM79.184 5.551h-1.26v4.38l.45.132v.132h-1.603v-.132l.45-.152v-4.36h-1.265l-.29.684h-.18l.042-.887h4.081l.042.873h-.172l-.295-.67zM81.254 10.007h2.137l.29-.684h.171l-.042.873h-3.712v-.11l.45-.11V5.579l-.45-.118v-.113h3.645l.042.873h-.171l-.29-.67h-2.067v2.055h1.645l.138-.518h.16v1.224h-.16l-.138-.512h-1.645v2.207h-.003zM86.678 9.568c-.427-.445-.644-1.044-.644-1.796s.214-1.351.644-1.796c.427-.445.99-.667 1.687-.667.692 0 1.251.222 1.679.667s.644 1.044.644 1.796-.214 1.351-.644 1.796c-.427.445-.99.667-1.679.667-.695 0-1.257-.222-1.687-.667zm.543-3.482c-.287.4-.433.963-.433 1.692s.143 1.292.433 1.686c.29.394.669.591 1.145.591s.855-.197 1.144-.591c.29-.394.433-.957.433-1.686s-.143-1.292-.433-1.692c-.287-.4-.669-.6-1.144-.6-.472.003-.855.203-1.145.6zM93.934 7.806h-1.527v2.111l.655.146v.132h-1.811v-.132l.45-.152V5.579l-.45-.118v-.113h3.56l.042.873h-.171l-.29-.67h-1.985v2.063h1.527l.138-.512h.16v1.219h-.16l-.138-.515zM96.884 10.063l.45-.152V5.613l-.45-.132v-.132h1.603v.132l-.45.138V7.64h2.551V5.613l-.45-.132v-.132h1.603v.132l-.45.138v4.312l.45.132v.132h-1.603v-.132l.45-.152V7.834h-2.551v2.097l.45.132v.132h-1.603v-.132zM104.747 5.348l1.949 4.583.45.132v.132h-1.612v-.132l.436-.132-.56-1.343h-2.143l-.582 1.343.588.132v.132h-1.251v-.132l.45-.132 1.997-4.583h.278zm-.394.729-1.001 2.319h1.971l-.97-2.319zM108.569 5.618V9.93l.436.132v.132h-1.583v-.132l.45-.152V5.612l-.45-.132v-.132h1.583v.132l-.436.138zM113.175 6.666c0 .341-.113.625-.341.847-.225.225-.529.36-.914.411.171.079.346.276.526.594l.81 1.424.427.118v.132h-1.038l-1.257-2.229h-.81v1.965l.45.132v.132h-1.603v-.132l.45-.152V5.579l-.45-.118v-.113h2.067c.504 0 .908.118 1.218.352.309.236.464.557.464.965zm-1.777-1.115h-.816v2.221h.816c.315 0 .565-.096.754-.287s.284-.467.284-.828c0-.355-.096-.628-.284-.819s-.442-.287-.754-.287zM51.874 14.97c0 .341-.112.625-.34.847-.225.225-.529.36-.914.411.172.079.346.276.526.594l.81 1.424.428.118v.132h-1.038l-1.257-2.229h-.81v1.965l.45.132v.132h-1.603v-.132l.45-.152v-4.329l-.45-.118v-.11h2.067c.503 0 .908.118 1.218.352.309.236.464.557.464.963zm-1.777-1.115h-.816v2.221h.816c.312 0 .565-.096.753-.287s.284-.467.284-.828c0-.355-.095-.628-.284-.819s-.441-.287-.753-.287zM53.86 18.311h2.137l.29-.684h.172l-.042.873h-3.712v-.11l.45-.11v-4.397l-.45-.118v-.11h3.645l.042.873h-.172l-.29-.67h-2.067v2.055h1.645l.138-.518h.16v1.224h-.16l-.138-.512h-1.645v2.204h-.003zM57.232 18.348l-.048-.982h.18c.059.253.169.459.329.616s.323.262.492.312c.169.051.351.076.551.076.363 0 .655-.09.872-.267s.326-.433.326-.766c0-.276-.087-.479-.259-.602s-.487-.256-.945-.394l-.284-.087a6.34 6.34 0 0 1-.262-.087 1.655 1.655 0 0 1-.262-.11c-.056-.031-.129-.076-.216-.132s-.157-.113-.2-.172c-.045-.059-.09-.129-.141-.208s-.084-.169-.104-.27-.028-.211-.028-.327c0-.397.129-.718.388-.966s.652-.372 1.181-.372c.428 0 .815.101 1.162.304l.236-.172.076.076.048.977h-.18c-.084-.369-.239-.628-.47-.78a1.376 1.376 0 0 0-.762-.225c-.326 0-.588.087-.785.259s-.292.408-.292.704c0 .138.022.256.065.349a.617.617 0 0 0 .239.251c.115.07.222.127.321.163s.256.09.472.16c.18.056.318.101.41.135s.217.084.363.149.262.13.343.197c.082.068.163.149.248.245s.146.211.183.338a1.6 1.6 0 0 1 .056.428c0 .417-.141.749-.424.996-.284.251-.714.374-1.297.374-.484 0-.903-.101-1.251-.304l-.242.186-.09-.073zM64.735 13.855h-1.26v4.38l.45.132v.132h-1.603v-.132l.45-.152v-4.36h-1.265l-.29.684h-.18l.042-.887h4.081l.042.873h-.171l-.295-.67zM66.318 17.872c-.427-.445-.644-1.044-.644-1.796s.214-1.351.644-1.796c.427-.445.99-.667 1.687-.667.692 0 1.251.222 1.679.667s.644 1.044.644 1.796-.214 1.351-.644 1.796c-.427.445-.99.667-1.679.667-.698.003-1.26-.22-1.687-.667zm.543-3.479c-.287.4-.433.963-.433 1.692s.143 1.292.433 1.686c.287.394.669.591 1.145.591s.855-.197 1.144-.591c.287-.394.433-.957.433-1.686s-.143-1.292-.433-1.692c-.287-.4-.669-.6-1.144-.6s-.858.2-1.145.6zM74.636 14.97c0 .341-.112.625-.34.847-.225.225-.529.36-.914.411.171.079.346.276.526.594l.81 1.424.427.118v.132h-1.038l-1.257-2.229h-.81v1.965l.45.132v.132h-1.603v-.132l.45-.152v-4.329l-.45-.118v-.11h2.067c.504 0 .908.118 1.218.352.309.236.464.557.464.963zm-1.777-1.115h-.816v2.221h.816c.315 0 .565-.096.754-.287s.284-.467.284-.828c0-.355-.096-.628-.284-.819-.191-.191-.442-.287-.754-.287zM78.059 13.655l1.949 4.583.45.132v.132h-1.612v-.132l.436-.132-.56-1.343h-2.143l-.582 1.343.588.132v.132h-1.251v-.132l.45-.132 1.999-4.583h.276zm-.396.726L76.662 16.7h1.971l-.97-2.319zM83.948 13.855h-1.26v4.38l.45.132v.132h-1.603v-.132l.45-.152v-4.36H80.72l-.29.684h-.18l.042-.887h4.081l.042.873h-.171l-.295-.67zM86.015 13.925v4.312l.436.132v.132h-1.583v-.132l.45-.152v-4.301l-.45-.132v-.132h1.583v.132l-.436.141zM87.668 17.872c-.427-.445-.644-1.044-.644-1.796s.214-1.351.644-1.796c.427-.445.99-.667 1.687-.667.692 0 1.251.222 1.679.667s.644 1.044.644 1.796-.214 1.351-.644 1.796c-.427.445-.99.667-1.679.667-.698.003-1.26-.22-1.687-.667zm.543-3.479c-.287.4-.433.963-.433 1.692s.143 1.292.433 1.686c.287.394.669.591 1.145.591s.855-.197 1.144-.591c.287-.394.433-.957.433-1.686s-.143-1.292-.433-1.692c-.287-.4-.669-.6-1.144-.6s-.858.2-1.145.6zM92.238 18.401l.45-.152v-4.332l-.45-.132v-.132h1.17l2.711 3.834v-3.603l-.45-.132v-.096h1.1v.096l-.45.138v4.608h-.27l-3.167-4.47v4.242l.45.138v.09h-1.091v-.096h-.003zM48.334 26.933l-.048-.982h.18c.059.253.169.459.329.616s.323.262.492.312c.169.051.351.076.548.076.363 0 .655-.09.872-.267s.326-.433.326-.766c0-.276-.087-.479-.259-.602-.174-.124-.486-.256-.945-.394l-.284-.087a6.34 6.34 0 0 1-.262-.087 1.655 1.655 0 0 1-.262-.11 4.078 4.078 0 0 1-.216-.132.704.704 0 0 1-.2-.172c-.045-.059-.09-.13-.141-.208s-.084-.169-.104-.27-.028-.211-.028-.327c0-.397.129-.718.388-.965s.653-.372 1.181-.372c.428 0 .816.101 1.162.304l.236-.172.076.076.048.977h-.18c-.081-.369-.239-.628-.47-.78a1.374 1.374 0 0 0-.759-.225c-.326 0-.588.087-.785.259s-.292.408-.292.704c0 .138.022.256.065.349a.617.617 0 0 0 .239.251c.115.07.222.127.321.163s.256.09.472.16c.18.056.318.101.411.135s.216.084.363.149.262.13.343.197c.082.068.163.149.25.245a.888.888 0 0 1 .183.338c.037.13.056.273.056.428 0 .417-.141.749-.425.996s-.714.374-1.297.374c-.484 0-.9-.101-1.251-.304l-.242.186-.093-.073zM56.335 22.477V25.3c0 .557-.174 1.002-.523 1.329s-.804.493-1.372.493c-.568 0-1.023-.163-1.372-.493-.349-.327-.523-.771-.523-1.329v-2.795l-.45-.132v-.132h1.603v.132l-.45.138v2.79c0 .481.132.853.394 1.118s.61.397 1.043.397c.439 0 .793-.135 1.06-.403s.405-.639.405-1.115v-2.829l-.45-.132v-.096h1.08v.096l-.444.141zM60.932 23.555c0 .341-.113.625-.34.847-.225.225-.529.36-.914.411.172.079.346.276.526.594l.81 1.424.427.118v.132h-1.038l-1.257-2.229h-.81v1.965l.45.132v.132h-1.603v-.132l.45-.152v-4.329l-.45-.118v-.11h2.067c.503 0 .908.118 1.218.352.309.236.464.557.464.963zm-1.777-1.115h-.815v2.221h.815c.315 0 .565-.096.754-.287s.284-.467.284-.828c0-.355-.096-.628-.284-.819-.191-.189-.442-.287-.754-.287zM65.778 25.03v1.807l-.096.09-.346-.172c-.391.251-.855.374-1.389.374-.728 0-1.308-.22-1.738-.662-.43-.439-.647-1.039-.647-1.796s.217-1.357.65-1.802c.433-.445 1.01-.667 1.73-.667.557 0 1.027.13 1.403.388l.262-.16.081.084.048.949h-.18a1.475 1.475 0 0 0-.27-.54c-.121-.146-.256-.256-.408-.327a1.864 1.864 0 0 0-.816-.18c-.557 0-.99.191-1.294.577s-.456.943-.456 1.672c0 .678.149 1.219.447 1.619.298.403.728.602 1.297.602.402 0 .739-.101 1.015-.304v-1.559l-.45-.132v-.132h1.592v.132l-.436.138zM67.777 26.899h2.137l.29-.684h.171l-.042.873h-3.712v-.11l.45-.11v-4.4l-.45-.118v-.11h3.645l.042.873h-.171l-.29-.67H67.78v2.055h1.645l.138-.518h.16v1.224h-.16l-.138-.512H67.78v2.207h-.003zM74.69 23.555c0 .341-.113.625-.341.847-.225.225-.529.36-.914.411.172.079.346.276.526.594l.81 1.424.427.118v.132H74.16l-1.257-2.229h-.81v1.965l.45.132v.132H70.94v-.132l.45-.152v-4.329l-.45-.118v-.11h2.067c.503 0 .908.118 1.218.352.309.236.464.557.464.963zm-1.777-1.115h-.815v2.221h.815c.315 0 .565-.096.754-.287s.284-.467.284-.828c0-.355-.096-.628-.284-.819-.188-.189-.439-.287-.754-.287zM76.045 22.497l1.437 2.305 1.46-2.305-.56-.124v-.132h1.257v.132l-.478.124-1.597 2.519v1.807l.442.132v.132h-1.597v-.132l.45-.152v-1.779l-1.578-2.525-.436-.124v-.132h1.64v.132l-.439.121zM16.955 0l-.236.242-.008-.031.217-.211h.028zM13.856 18.176l.529-.538h-.003l-.526.538zM13.502 9.219a14.76 14.76 0 0 0-.273.616L1.361 21.911c-.07-.177-.141-.36-.205-.54L13.502 9.219zM13.212 12.873l-1.094 1.126c.006-.014.006-.031.008-.048l-9.809 9.965a23.463 23.463 0 0 1-.256-.47l10.144-10.001c.017-.115.031-.225.051-.341l.953-.923c-.003.073.003.692.003.692zM13.828.166.371 13.998c.037-.301.082-.597.138-.892L13.774.174l.053-.008zM15.377 4.639.655 19.654c-.045-.208-.09-.419-.132-.631L15.335 4.481c.011.051.028.104.042.158zM9.666 1.405 1.449 9.909c.172-.419.363-.828.568-1.227L9.41 1.521c.084-.039.172-.076.256-.115zM20.645 26.075l-5.872 5.911c-.059-.009-.118-.009-.177-.017l3.428-3.414c-.025-.02-.053-.039-.076-.059l2.562-2.559.135.138zM16.544 27.215l-.003.003a.71.71 0 0 0-.034-.04c.014.011.025.025.037.037zM19.598.332l-2.104 2.142-.034-.082L19.564.323a.106.106 0 0 0 .034.008zM14.823 2.185.278 17.07a12.987 12.987 0 0 1-.031-.743L14.806 2.072c.008.037.011.073.017.113zM27.715 21.94l-3.771 3.797a.61.61 0 0 1-.048-.065h-.003c-.02-.025-.045-.053-.065-.082l3.782-3.769c.02.02.037.039.056.062h.003l-3.344 3.361 3.341-3.361c.014.011.034.042.048.056zM30.161 25.334l-3.979 4.003c-.02-.037-.034-.073-.053-.115l3.985-3.969a.654.654 0 0 1 .048.082zM41.739 7.749 30.33 19.211l-.045-.059L41.731 7.735c.003.008.003.011.008.014zM42.743 9.712 31.55 20.96a1.861 1.861 0 0 0-.039-.065L42.737 9.7c.003.003.006.008.006.011zM43.955 14.44 33.567 24.892c-.011-.025-.023-.065-.031-.084L43.95 14.432l.006.008zM43.502 11.924 32.641 22.843c-.006-.011-.036-.062-.039-.07l10.895-10.857c.003.003.006.006.006.008zM26.277 20.304l-3.757 3.769-.07-.073 3.768-3.761c.02.025.039.045.059.065z"/><path d="m26.325 20.357-3.752 3.775c-.017-.02-.037-.039-.053-.059l3.757-3.769c.014.011.039.042.048.053zM43.196 21.126c-.006.011-.008.025-.014.037l-8.569 8.645c0-.02-.008-.133-.008-.147l8.591-8.535zM24.489 31.04l-.503.507c-.048-.014-.11-.034-.146-.042l.585-.583.065.118zM40.519 6.004 29.006 17.565l-.048-.056L40.508 5.99l.011.014zM32.011 29.444l-2.528 2.542a4.612 4.612 0 0 1-.203.014l2.691-2.677c.011.04.028.076.039.121zM15.174 25.613l-.002.003v-.003h.002zM43.969 17.388l-.003.011-9.697 9.768-.025-.104 9.725-9.675zM19.773 29.774l-.003.003h-.003l.003-.003h.003zM39.124 4.476 27.67 16.085l-.197-.208L39.062 4.415l.062.062zM19.238 24.625l-2.629 2.66c-.02-.02-.053-.056-.067-.068l-4.303 4.329c-.051-.014-.098-.031-.149-.042l4.381-4.366c-.062-.068-.129-.132-.191-.2l2.655-2.623c.059.062.304.31.304.31zM12.025 17.069v-.025L3.49 25.7c-.101-.132-.197-.27-.295-.405l8.811-8.704c0-.087-.008-.172-.008-.265l1.485-1.453c.014.07.104.442.132.555 0 .006.006.008.006.008l-1.595 1.633zM25.707 3.066l.053.045-5.025 5.098a14.759 14.759 0 0 1-.18-.256L28.674.001h.028l-2.995 3.065zM15.369 19.609l-2.258 2.303a1.34 1.34 0 0 1-.051-.13l-6.763 6.79c-.034-.025-.065-.051-.098-.076l6.825-6.809c-.039-.107-.082-.208-.118-.315l2.222-2.187c.022.039.222.394.242.425zM14.382 17.635v.006l-1.977 2.013v-.008l-7.542 7.64a10.75 10.75 0 0 1-.329-.346l7.784-7.699c.008.045.02.09.028.135l-.025-.135a4.603 4.603 0 0 1-.048-.217l1.904-1.869.205.481zM37.51 3.11 26.202 14.578a21.4 21.4 0 0 1-.2-.206L37.45 3.065c.02.017.04.028.059.045zM23.434 17.385l-3.704 3.758c-.014-.02-.245-.279-.27-.307l3.737-3.693.236.242zM24.913 18.871l-3.746 3.794c-.011-.011-.264-.276-.276-.287l3.782-3.741.239.234zM23.893 25.672l.003.003.43-.433-.433.431zM28.997 23.581l-3.839 3.865-.082-.132 3.842-3.831.079.099zM23.943 1.942l-4.404 4.476c-.008-.006-.014-.02-.02-.025V6.39c-.02-.034-.039-.07-.059-.101-.025-.042-.053-.087-.076-.13L25.52.175c.02 0 .037-.006.056-.008l-1.699 1.742s.039.023.065.034zM16.148 6.86l-1.876 1.934c0-.006 0-.014.003-.025v-.003c.011-.113.079-.566.098-.673l1.634-1.582c.022.059.141.349.141.349zM23.381 29.286l-1.867 1.883-.267.09.489-.481c-.031-.014-.067-.031-.096-.042l1.617-1.616c.011.014.115.158.124.166zM27.374 4.476l-5.363 5.438a13.838 13.838 0 0 0-.203-.256L31.31.324c.012.003.023.008.031.008l-4.013 4.096.045.048zM21.899 1.005l-3.448 3.51c-.008-.008-.011-.02-.014-.025v-.003a.407.407 0 0 1-.045-.082 1.98 1.98 0 0 0-.07-.138l2.838-2.745c.084-.039.169-.079.256-.118l.014.011.43-.425.039.014zM16.519 21.419l-2.455 2.497c-.02-.034-.039-.07-.059-.107l-5.954 5.982c-.039-.022-.076-.042-.115-.068l6.021-6.001-.146-.273 2.444-2.415c.056.079.264.386.264.386zM19.362 12.597l-3.355 3.395a21.258 21.258 0 0 0-.219-.419l3.349-3.288.225.312zM29.99 7.749l-1.221 1.227-4.027 4.093c-.008-.008-.172-.18-.197-.208L35.642 1.917c.014.006.042.023.051.025l-5.709 5.799s.003.006.006.008zM18.173 10.809l-3.105 3.147-.172-.47 3.077-3.009.2.332z"/><path d="m22.065 27.623-4.328 4.363a4.402 4.402 0 0 1-.205.014l2.236-2.224c-.028-.017-.056-.037-.084-.053l2.255-2.249c.022.028.112.13.127.149zM20.622 14.263l-3.496 3.561c-.02-.028-.197-.296-.245-.369l3.524-3.468c.028.039.183.236.217.276zM28.758 5.991l.011.014-2.255 2.263v.003l-3.186 3.24c-.014-.02-.174-.194-.188-.217L33.607.991c.017.006.028.011.042.014l-4.89 4.985zM17.818 23.085 15.239 25.7a4.268 4.268 0 0 1-.065-.087l-5.155 5.179c-.045-.017-.084-.039-.127-.056l5.219-5.208c-.053-.079-.112-.155-.169-.234l2.59-2.562c.059.07.264.327.284.352zM21.991 15.862l-3.619 3.676c-.014-.02-.239-.312-.259-.338l3.645-3.595c.011.014.219.245.233.256zM17.098 8.901l-2.688 2.728c-.017-.104-.073-.45-.084-.54l2.599-2.531c.025.051.157.312.174.343zM22.515 24.081zM31.196 27.276l-4.68 4.709c-.059-.008-.118-.008-.177-.017l4.815-4.791a.491.491 0 0 1 .042.099z"/></symbol><symbol id="icon-close" viewBox="0 0 32 32"><path d="m25.333 8.547-1.88-1.88L16 14.12 8.547 6.667l-1.88 1.88L14.12 16l-7.453 7.453 1.88 1.88L16 17.88l7.453 7.453 1.88-1.88L17.88 16l7.453-7.453z"/></symbol></defs></svg>